<svg xmlns="http://www.w3.org/2000/svg" viewBox="0 0 500 400" fill="none" stroke="black" stroke-width="2.5">
  <!-- Tank Robot -->
  <circle cx="250" cy="40" r="8"/>
  <rect x="190" y="60" width="120" height="70" rx="8" stroke-width="3"/>
  <rect x="210" y="80" width="30" height="20" rx="3"/>
  <rect x="260" y="80" width="30" height="20" rx="3"/>
  <rect x="210" y="110" width="80" height="10" rx="2"/>
  <!-- Turret -->
  <ellipse cx="250" cy="130" rx="50" ry="15" stroke-width="3"/>
  <!-- Cannon -->
  <rect x="285" y="120" width="60" height="20" rx="3" stroke-width="3"/>
  <circle cx="345" cy="130" r="8"/>
  <!-- Tank treads -->
  <rect x="180" y="140" width="140" height="60" rx="30" stroke-width="4"/>
  <line x1="190" y1="150" x2="190" y2="190" stroke-width="3"/>
  <line x1="210" y1="145" x2="210" y2="195" stroke-width="3"/>
  <line x1="230" y1="143" x2="230" y2="197" stroke-width="3"/>
  <line x1="250" y1="142" x2="250" y2="198" stroke-width="3"/>
  <line x1="270" y1="143" x2="270" y2="197" stroke-width="3"/>
  <line x1="290" y1="145" x2="290" y2="195" stroke-width="3"/>
  <line x1="310" y1="150" x2="310" y2="190" stroke-width="3"/>
  <circle cx="195" cy="170" r="12"/>
  <circle cx="250" cy="170" r="12"/>
  <circle cx="305" cy="170" r="12"/>
</svg>
